<svg xmlns="http://www.w3.org/2000/svg" viewBox="0 0 48 48" fill="none">
  <defs>
    <linearGradient id="logo-gradient" x1="0%" y1="0%" x2="100%" y2="100%">
      <stop offset="0%" stop-color="#6C63FF" />
      <stop offset="100%" stop-color="#A855F7" />
    </linearGradient>
  </defs>
  <!-- D: geometric angular letterform -->
  <path
    d="M6 8h8c7.5 0 13 5.5 13 16s-5.5 16-13 16H6V8zm5 4.5v23h3c5.5 0 9.5-4 9.5-11.5S19.5 12.5 14 12.5h-3z"
    fill="url(#logo-gradient)"
  />
  <!-- U: geometric angular letterform -->
  <path
    d="M30 8v22c0 4.5 2.5 7.5 6 7.5s6-3 6-7.5V8h-4.5v21.5c0 2.2-.6 3.5-1.5 3.5s-1.5-1.3-1.5-3.5V8H30z"
    fill="url(#logo-gradient)"
  />
</svg>
