<svg xmlns="http://www.w3.org/2000/svg" viewBox="0 0 32 32" fill="none">
  <defs>
    <linearGradient id="favicon-gradient" x1="0%" y1="0%" x2="100%" y2="100%">
      <stop offset="0%" stop-color="#6C63FF" />
      <stop offset="100%" stop-color="#A855F7" />
    </linearGradient>
  </defs>
  <rect width="32" height="32" rx="6" fill="#0A0A0F" />
  <!-- D -->
  <path
    d="M4 6h5.5c5 0 8.5 3.5 8.5 10s-3.5 10-8.5 10H4V6zm3.5 3v14h2c3.5 0 6.2-2.5 6.2-7S13 9 9.5 9H7.5z"
    fill="url(#favicon-gradient)"
  />
  <!-- U -->
  <path
    d="M20 6v14c0 3 1.7 5 4 5s4-2 4-5V6h-3v13.5c0 1.4-.4 2.2-1 2.2s-1-.8-1-2.2V6h-3z"
    fill="url(#favicon-gradient)"
  />
</svg>
